<svg xmlns="http://www.w3.org/2000/svg" xmlns:xlink="http://www.w3.org/1999/xlink" viewBox="0 0 391.42 293.76"><defs><style>.cls-1,.cls-4,.cls-5,.cls-6{fill:none;}.cls-2{clip-path:url(#clip-path);}.cls-3{clip-path:url(#clip-path-2);}.cls-4,.cls-5,.cls-6{stroke:#f6a240;stroke-miterlimit:10;}.cls-4{stroke-width:4px;}.cls-5{stroke-width:2px;}.cls-6{stroke-width:0.75px;}</style><clipPath id="clip-path" transform="translate(5.24 5.44)"><path class="cls-1" d="M92,233l59,50L258,149,248,24l-46-3L99,0S89,18,77,45L49,84l-9,29-4,12-5,31L0,246Z"/></clipPath><clipPath id="clip-path-2" transform="translate(5.24 5.44)"><rect class="cls-1" x="-5" y="-5" width="268" height="293"/></clipPath></defs><title>Breña_1</title><g id="Capa_2" data-name="Capa 2"><g id="Breña"><g id="Perimetro"><g class="cls-2"><g class="cls-3"><g class="cls-3"><image width="559" height="612" transform="scale(0.48)" xlink:href=""/></g></g></g></g><g id="Calles_y_avenidas" data-name="Calles y avenidas"><path class="cls-4" d="M256,151c-22.71-7.34-127.26-41-207-67" transform="translate(5.24 5.44)"/><path class="cls-4" d="M11.62,245.78C6.3,246,13,246,13,246l1.62-.22c19.9-.65,68.12-3.1,78.38-11.78,13-11,23-49,20-71s5-13,6-22,20.39-60.16,20.39-60.16" transform="translate(5.24 5.44)"/><path class="cls-4" d="M47,90c35.18-5,143.17-14,205-19" transform="translate(5.24 5.44)"/><line class="cls-4" x1="391.24" y1="88.44" x2="135.28" y2="111.68"/><polyline class="cls-5" points="90.17 91.1 124.24 23.44 203.24 40.44 254.34 43.26"/><polyline class="cls-5" points="257.24 63.44 102.17 75.53 61.98 78.66"/><polyline class="cls-6" points="34.24 181.44 85.24 118.44 98.45 103.8 102.24 97.44 117.24 100.44 139.5 100.06 258.04 89.44"/><line class="cls-5" x1="100.75" y1="75.64" x2="102.24" y2="97.44"/><line class="cls-6" x1="36.55" y1="159.54" x2="86.91" y2="100.06"/><line class="cls-6" x1="42.52" y1="126.6" x2="83.24" y2="161.44"/><polyline class="cls-6" points="59.24 150.44 93.24 181.44 71.17 242.12"/><polyline class="cls-6" points="215.86 213.78 201.24 203.44 197.24 194.44 127.62 133.94"/><polyline class="cls-6" points="104.18 232.31 188.84 133.06 189.24 106.78"/><polyline class="cls-6" points="112.58 251.44 205.94 138.59 203.98 105.44"/><polyline class="cls-6" points="125.6 262.47 225.24 144.44 221.93 103.81"/><line class="cls-6" x1="142.42" y1="276.73" x2="201.24" y2="203.44"/><line class="cls-6" x1="167.15" y1="276.73" x2="108.15" y2="224.96"/><line class="cls-6" x1="178.24" y1="262.44" x2="113.79" y2="209.65"/><polyline class="cls-6" points="119.24 196.44 127.24 196.44 189.24 250.44"/><line class="cls-6" x1="199.47" y1="234.3" x2="130.24" y2="178.44"/><line class="cls-6" x1="237.24" y1="187.44" x2="179.49" y2="144.02"/><polyline class="cls-6" points="227.44 199.28 159.24 147.44 151.8 154.95"/><polyline class="cls-6" points="119.24 153.11 93.24 147.44 61.24 187.44"/><polyline class="cls-6" points="36.24 167.44 63.24 189.44 72.24 192.44 86.91 199.28"/><polyline class="cls-6" points="125.6 145.67 144.24 159.44 144.24 161.44 132.24 178.44 125.24 173.44 119.24 175.29"/><polyline class="cls-6" points="117.79 199.28 122.24 203.44 125.6 196.44 125.24 150.44"/></g></g></g></svg>