<svg viewBox="0 0 386.18 283">
  <path d="M0,246l31-90,5-31,4-12,9-29L77,45C89,18,99,0,99,0L202,21l46,3,10,125L151,283,92,233Z" fill="#ffd85c"/>
  <path d="M256,151c-22.71-7.34-127.26-41-207-67M11.62,245.78C6.3,246,13,246,13,246l1.62-.22c19.9-.65,68.12-3.1,78.38-11.78,13-11,23-49,20-71s5-13,6-22,20.39-60.16,20.39-60.16M252,71C190.17,76,82.18,85,47,90m339-7L130,106.24" fill="none" stroke="#f6a240" stroke-miterlimit="10" stroke-width="4"/>
  <path d="M84.93,85.66,119,18l79,17,51.11,2.82M56.74,73.22l40.19-3.13L252,58M95.51,70.2,97,92" fill="none" stroke="#f6a240" stroke-miterlimit="10" stroke-width="2"/>
  <path d="M29,176l51-63L93.21,98.36,97,92l15,3,22.26-.38L252.8,84M31.31,154.1,81.67,94.62M37.28,121.16,78,156M65.93,236.68,88,176,54,145m156.62,63.34L196,198l-4-9-69.62-60.5M98.94,226.87l84.66-99.25.4-26.28M107.34,246,200.7,133.15l-2-33.15M120.36,257,220,139l-3.31-40.63M137.18,271.29,196,198m-93.09,21.52,59,51.77M173,257l-64.45-52.79M184,245l-62-54h-8m80.23,37.86L125,173m49.25-34.42L232,182m-9.8,11.84L154,142l-7.44,7.51M114,147.67,88,142,56,182M31,162l27,22,9,3,14.67,6.84m32.33-24,6-1.85,7,5,12-17v-2l-18.64-13.77m-7.81,53.61L117,198l3.36-7L120,145" fill="none" stroke="#f6a240" stroke-miterlimit="10" stroke-width="0.75"/>
</svg>
