<svg xmlns="http://www.w3.org/2000/svg" viewBox="0 0 10.41 15.7"><defs><style>.cls-1{fill:#936240;}.cls-2{fill:#b74a2a;}.cls-3{fill:#ffe4e7;}</style></defs><title>edifice2</title><g id="Capa_2" data-name="Capa 2"><g id="Capa_1-2" data-name="Capa 1"><polygon class="cls-1" points="0 0 0 13.53 2.71 15.7 2.71 1.8 0 0"/><polygon class="cls-2" points="7.93 0 0 0 2.71 1.8 10.41 1.8 7.93 0"/><rect class="cls-3" x="2.71" y="1.77" width="7.7" height="13.9"/><rect class="cls-1" x="3.79" y="2.71" width="1.08" height="1.62"/><rect class="cls-1" x="5.41" y="2.71" width="1.08" height="1.62"/><rect class="cls-1" x="3.79" y="4.46" width="1.08" height="0.93"/><rect class="cls-1" x="5.41" y="4.46" width="1.08" height="0.93"/><rect class="cls-1" x="7.04" y="2.71" width="1.08" height="1.62"/><rect class="cls-1" x="8.66" y="2.71" width="1.08" height="1.62"/><rect class="cls-1" x="7.04" y="4.46" width="1.08" height="0.93"/><rect class="cls-1" x="8.66" y="4.46" width="1.08" height="0.93"/><rect class="cls-1" x="3.79" y="6.5" width="1.08" height="2.16"/><rect class="cls-1" x="5.41" y="6.5" width="1.08" height="2.16"/><rect class="cls-1" x="7.04" y="6.5" width="1.08" height="2.16"/><rect class="cls-1" x="8.66" y="6.5" width="1.08" height="2.16"/><rect class="cls-1" x="3.79" y="9.71" width="1.08" height="2.17"/><rect class="cls-1" x="5.41" y="9.71" width="1.08" height="2.17"/><rect class="cls-1" x="7.04" y="9.71" width="1.08" height="2.17"/><rect class="cls-1" x="8.66" y="9.71" width="1.08" height="2.17"/><rect class="cls-2" x="5.41" y="12.99" width="2.71" height="2.71"/></g></g></svg>