<svg xmlns="http://www.w3.org/2000/svg" viewBox="0 0 22.61 34.1"><defs><style>.cls-1{fill:#936240;}.cls-2{fill:#b74a2a;}.cls-3{fill:#00d6fd;}</style></defs><title>edifice1</title><g id="Capa_2" data-name="Capa 2"><g id="Capa_1-2" data-name="Capa 1"><polygon class="cls-1" points="0 0 0 29.39 5.88 34.1 5.88 3.92 0 0"/><polygon class="cls-2" points="17.22 0 0 0 5.88 3.92 22.61 3.92 17.22 0"/><rect class="cls-3" x="5.88" y="3.79" width="16.73" height="30.18"/><rect class="cls-1" x="8.23" y="5.81" width="2.35" height="3.53"/><rect class="cls-1" x="11.76" y="5.81" width="2.35" height="3.53"/><rect class="cls-1" x="8.23" y="9.63" width="2.35" height="2.02"/><rect class="cls-1" x="11.76" y="9.63" width="2.35" height="2.02"/><rect class="cls-1" x="15.29" y="5.81" width="2.35" height="3.53"/><rect class="cls-1" x="18.81" y="5.81" width="2.35" height="3.53"/><rect class="cls-1" x="15.29" y="9.63" width="2.35" height="2.02"/><rect class="cls-1" x="18.81" y="9.63" width="2.35" height="2.02"/><rect class="cls-1" x="8.23" y="13.98" width="2.35" height="4.7"/><rect class="cls-1" x="11.76" y="13.98" width="2.35" height="4.7"/><rect class="cls-1" x="15.29" y="14.05" width="2.35" height="4.7"/><rect class="cls-1" x="18.81" y="14.05" width="2.35" height="4.7"/><rect class="cls-1" x="8.23" y="21.04" width="2.35" height="4.7"/><rect class="cls-1" x="11.76" y="21.04" width="2.35" height="4.7"/><rect class="cls-1" x="15.29" y="21.04" width="2.35" height="4.7"/><rect class="cls-1" x="18.81" y="21.04" width="2.35" height="4.7"/><rect class="cls-2" x="11.76" y="28.09" width="5.88" height="5.88"/></g></g></svg>