<svg xmlns="http://www.w3.org/2000/svg" viewBox="0 0 1135 696.05">
  <title>LD</title>
  <g>
    <path d="M73.5,73l27-4,19-8h24l14-7,21-1,19-4,10-1,14-2h10l21,4,19,4h13l18,1,49,2,13,6,22,2,29,11s16-2,40,1,35-8,35-8l39-7,7,8a208.38,208.38,0,0,1,19,27c8,14,24,11,24,11l3,2,51-1,18,6s29,13,40,20,20,2,20,2,27,11,41,20,37,12,37,12l66,1,14,4,8.5,2.5,21,1s16.5,4.5,47.5-6.5,44-64,44-64l13-71,16-27,11-9,22,32-10,8,43,56v11l34,105-3,5-9,3-4,5-9,4-6,7-19,17-6-9-3-1-14-16,7-7-5-8,19-48-7-7-45,17,1,13-3,15v39l-5,31s-9,19-11,25-1,9-1,9,26,29,32,37,32,29,32,29l9,17,13,11,30.5-.5,22,13v4l-13-4-5,14-25-14-26-18-110,15-14-34-7-7-4-11-232,29-5,10,11,18,29,81,58,146-109,18-24-168,9-40-21,4-4-3-7,1-76,8,54-65-9-128-42-3-108-20-20,44-30,40-4,9-8,34-5,26-31,95-181,3-36,8v-32l-3-24-14-56-43,11-64,8-11-9-2-11,3-9-6-7,11-97,119-20,9-14,10-20,6-16-64,6v-24H76l-7-79h7l-7-37Z" fill="#ffd85c"/>
    <g>
      <path d="M14.44,281.35,139.1,257.58l457-48.22M103,336.5c46-69,32-78.93,32-78.93,10-1.92,20-44.07,20-44.07l-13-143L140.24,65M93,216.84,309,198.5l178-18,105-11M299.85,56.5a43.29,43.29,0,0,1-4.85,9c-9,12,16.63,173,16.63,173M489,124.5s-72-7-148-19-104-11-104-11-138,17-150,17c-5.21,0-9.67-1.51-17-.76M520.44,63.63,508,88.5H492s-8.06,46.85,3.47,91.43M277.88,242.06,282,275.5s-2,11,20,19c8.2,3,53.72,17.9,107.63,35.44m-281.7,91.68c-2.08-12.41-3.89-22.88-5-28.26-4-19.86-14-51.86-20-56.86s-43-19-49-32-3.68-31.75-3.68-31.75M192,253.5s5,25-5,42-20,52-21,62,9,69,9,69m553.64-302L649,238.5v4l21,210,29.06,204.68m143.7-491.24L764.13,315.72s-8.52-1.57,5.68,60.6c.48,2.1,1,4.26,1.43,6.46" fill="none" stroke="#f6a240" stroke-miterlimit="10" stroke-width="4"/>
      <path d="M992.45,82.47c16-19.24,43.89-36.41,60-45.38M863.78,165.61c-7.76.23-29.14.68-59.78-.11-39-1-64-22-77-26s-40-16-56-25-38-9-82-4-49-30-59-41-54,12-66,15-15-9-38-6-49-7-127.68-18.61S198,56.5,198,56.5,114.39,71.84,70.11,80.35m519,21.17L615,396.5M799.84,641.65,696.13,388.22" fill="none" stroke="#f6a240" stroke-miterlimit="10" stroke-width="8"/>
      <path d="M603.72,315.81c31.79-2.58,54.28-4.31,54.28-4.31M15.07,410.74C65,404.51,116.51,396.51,141,388.5c0,0,242-46,256-52,1.56-.67,6-1.5,12.69-2.44m-52.28,11.77c-10.59-21.67-4.29-34.33-4.29-34.33L384,230.87m219.74,37.19S585,277.5,473,248.5c0,0-76.87-12-91.94-10m70-15.94s8.47,18.95.44,30-19.08,35.16-19.08,35.16-35.16,47.2-37.17,53.23-6,49.21-6,49.21L357.06,490.6l-4,49.22s0,17.07-8,25.11-66.29,114.5-69.3,130.57M130.54,437.42S182,414.5,234,432.5l7-1m-100,71s34-9,52-8,166-4,166-4m-166-19s9,10,37-29,72-21,72-21l74,15.92M193,494.5c-1-67,5.26-68,5.26-68m86.23-65.85S267,374.5,278,396.5s11,20,6,41-9.63,57-9.63,57M615,396.5s28,48,32,58a14.62,14.62,0,0,1,.84,4.57m353.27-150.73c-17.4,21.1-33.76,39.51-39.11,41.16-13,4-347,47-347,47m227.76-29.87L598.49,208.5m521.08,218q-4.3-1.81-8.57-4c-31-16-53-34-63-46S985.32,327,985.32,327m-18.93,19.66L991,406.5m109-263s-81,26-91,31-25,18-30,22-87,32-87,32l-72.56-18.13M768.5,572.15c-34.79,7.56-67,12.59-95.71,15.88" fill="none" stroke="#f6a240" stroke-miterlimit="10" stroke-width="6"/>
    </g>
  </g>
</svg>
