<svg xmlns="http://www.w3.org/2000/svg" viewBox="0 0 1106.03 555.41"><path fill="none" stroke="#f6a240" stroke-width="6px" d="M589,175.17c31.79-2.58,54.28-4.31,54.28-4.31M.37,270.1c49.89-6.23,101.44-14.24,125.93-22.24,0,0,242-46,256-52,1.56-.67,6-1.5,12.69-2.45m-52.28,11.77c-10.59-21.67-4.29-34.32-4.29-34.32l30.86-80.64M589,127.41s-18.72,9.45-130.72-19.55c0,0-76.88-12-91.94-10m70-15.94s8.47,19,.44,30-19.09,35.15-19.09,35.15-35.15,47.21-37.16,53.24-6,49.21-6,49.21L342.35,350l-4,49.22s0,17.07-8,25.11S264,538.79,261,554.86M115.84,296.78s51.46-22.92,103.46-4.92l7-1m-100,71s34-9,52-8,166-4,166-4m-166-19s9,10,37-29,72-21,72-21l74,15.92m-183,57.08c-1-67,5.25-68,5.25-68M269.79,220s-17.49,13.85-6.49,35.85,11,20,6,41-9.63,57-9.63,57m340.63-98s28,48,32,58a14.61,14.61,0,0,1,.84,4.56M986.41,167.7c-17.4,21.1-33.76,39.51-39.11,41.16-13,4-347,47-347,47M828.06,226,583.78,67.86m521.09,218q-4.32-1.82-8.57-4c-31-16-53-34-63-46s-62.68-49.5-62.68-49.5M951.69,206l24.61,59.84m109-263s-81,26-91,31-25,18-30,22-87,32-87,32L804.74,69.73M753.8,431.51c-34.79,7.56-67,12.58-95.71,15.88"/></svg>