<svg xmlns="http://www.w3.org/2000/svg" viewBox="0 0 1135 659.5"><defs><style>.cls-1{fill:#ffd85c;}</style></defs><title>ldPerimeter</title><g id="Capa_2" data-name="Capa 2"><g id="Cercado_de_lima" data-name="Cercado de lima"><g id="Perimetro"><path class="cls-1" d="M73.5,73l27-4,19-8h24l14-7,21-1,19-4,10-1,14-2h10l21,4,19,4h13l18,1,49,2,13,6,22,2,29,11s16-2,40,1,35-8,35-8l39-7,7,8a208.38,208.38,0,0,1,19,27c8,14,24,11,24,11l3,2,51-1,18,6s29,13,40,20,20,2,20,2,27,11,41,20,37,12,37,12l66,1,14,4,8.5,2.5,21,1s16.5,4.5,47.5-6.5,44-64,44-64l13-71,16-27,11-9,22,32-10,8,43,56v11l34,105-3,5-9,3-4,5-9,4-6,7-19,17-6-9-3-1-14-16,7-7-5-8,19-48-7-7-45,17,1,13-3,15v39l-5,31s-9,19-11,25-1,9-1,9,26,29,32,37,32,29,32,29l9,17,13,11,30.5-.5,22,13v4l-13-4-5,14-25-14-26-18-110,15-14-34-7-7-4-11-232,29-5,10,11,18,29,81,58,146-109,18-24-168,9-40-21,4-4-3-7,1-76,8,54-65-9-128-42-3-108-20-20,44-30,40-4,9-8,34-5,26-31,95-181,3-36,8v-32l-3-24-14-56-43,11-64,8-11-9-2-11,3-9-6-7,11-97,119-20,9-14,10-20,6-16-64,6v-24H76l-7-79h7l-7-37Z"/></g></g></g></svg>