<svg viewBox="0 0 830.47 601.73"><path fill="none" stroke="#f6a240" stroke-width="4px" d="M.37,225.62,125,201.85l457-48.21M88.93,280.77c46-69,32-78.92,32-78.92,10-1.93,20-44.08,20-44.08l-13-143-1.76-5.52M78.94,161.12l216-18.35,178-18,105-11M285.78.77a42.78,42.78,0,0,1-4.85,9c-9,12,16.63,173,16.63,173m177.37-114s-72-7-148-19-104-11-104-11-138,17-150,17c-5.21,0-9.67-1.5-17-.76M506.37,7.9,493.93,32.77h-16s-8.06,46.86,3.47,91.43M263.81,186.33l4.12,33.44s-2,11,20,19c8.2,3,53.72,17.9,107.63,35.44M113.86,365.9c-2.08-12.41-3.89-22.88-5-28.26-4-19.87-14-51.87-20-56.87s-43-19-49-32S36.25,217,36.25,217m141.68-19.25s5,25-5,42-20,52-21,62,9,69,9,69m553.65-302-79.65,114v4l21,210L685,601.45M828.7,110.22,750.06,260s-8.51-1.58,5.68,60.6q.72,3.15,1.44,6.45"/></svg>