<svg xmlns="http://www.w3.org/2000/svg" viewBox="0 0 1430.52 1611.59">
    <path class="cls-1" fill="#edbf00" d="M21.3,0,22,1.59V4.26L21.3,5.5,20,6.59v5.88h5.15L28,14.59l3,1,3,3v4.92l-2,.08-2,2v3l1,1v3l-2,2H27v2.5h7.38v4.06L31,42.59v1h2v5l5,8V61.2l1,1.39-2,4-3,2-2,1H26.09l-2.09,3H20l-3,3v2.53H16v1.74l7,2.73,5,3-.5,2.11H25.15L24,89.59H22.17l-2.17-1H19l-1,2v1l1,1-1,1-2-1-2-1H13l-1,1-1,1-1-2H8l-2,1-2,3-1,1v2l-1,2-1,2-1,3v1H5l2,3v2l-1,1-1,1-1,2v2l1,2H8v6l1,1-2,1v2H9.9l2.1,2v2l-3,3H8v1l-3,3-1,1,3,4h6.1l1.9-1h2l2.27,1,.23,3.12.5,1.88-2,1-1,2v1l-1,1H12v3l2,1h2.8l2.2-2h2l1,3h5l2-1h3l1-2,2,2,2-2,2,1v1l-1.5,1,.5,1L39,163l3-1.42,10,13,6,9s9,13,13,19a155.24,155.24,0,0,1,8,14l2,5,7,13,6,11v4.83a166.34,166.34,0,0,1,16,42.17,134.82,134.82,0,0,0,15,39s10,21,10,24v2.9l2,2.1-2,2h-2.19l-.81,1,1,3h2.69l-1.69,1v2l2,1h-2v2s5,0,5,5l-1,1v2l1,1v3.21l2,.79,3,7v4.61a22.38,22.38,0,0,1,5,14.39v2s6,14,6,20v6s3,2,3,7-1,5-1,5l-1,1,2,3.75v4.25l1,1v7l1,2,1,5,2,4,2,6,1,3v6l1,4v3.16l1,2.84,1,3v5.93l2,4.07,1,2v3l-1,2,3,3v4.79l-1,2.21v6l1,1.76v3.23l-1,2,1,4.28,2,6.72v12.5l-3,5.5,3,7v1.8l-1,1.21v5l1,.79v5.39l-1,2.82v7l-4,16-2,9-2,6-2,10v11l-1,5s-4,24-5,27a18.93,18.93,0,0,1-4,6,29,29,0,0,1-2,22c-6,11-8,18-8,18s-4,27-7,30l-1,1s-6,1-8-1l-1,5,3,2-1,7,1,2v5l-1,3h1.83l3.17,4,14-6s6,2,6,7-3,6-3,6l2,4-2,3v6h1.13l-.13,5-13-14-5,4,7,9-1,18s-3,9-14,17l1,4h-3.81l-.19,4s-20,18-30,23c0,0-11,9-23,11,0,0-3,0-4,4,0,0-7-2-10,4l2,4v3s9-4,12-2l1,3,3-2,5,3h3.32l.68-3,6-3v-3l11-15s3-3,11-3,41,4,41,4l17,5,5,1s50,19,59,25,35,21,35,21a111.88,111.88,0,0,0,15,5c8,2,135,73,135,77s25,22,25,22l-3,3,2,2,4-3,11,9-1,3,2,2-1,3,3-1s14,8,17,10,9,11,9,11l5,6,8,7,6,3,6,5,4,14-1,7,7,7,2,4v3.59l-2,1.41,2,1s4,8,3,13h-1.9l-.1,6-1,5-4,1,3,9-5,2,2,7-1,4-1,4-1,4v1l-7,1-4-2h-3l-3.22,2H488.25l7.75,4-4,3s-5-1-6-1-2,4-2,4l3,4h2.59l-.59,2-1,2,7,3s5,5,5,9,1,12-8,17-12,7-12,7l2,13-2,3s5,8,4,10-4,5-4,8,5,9,12,14,5,16,5,16-2,3-8,1l1,4-2,2h-2.83l-1.17,3h2.38l-1.38,2,2,1,1,3,5-1,2,1-1,2,3,2,3-4,7,3-1-4s14,12,69,32,88,39,88,39l63,30,3,4h10.2s30.8,18,37.8,20,14,7,14,7,8,6,17,8V1478l13,5.57,2,4,9,2,7,7,16,11,24,18s22,16,23,18,11,8,11,8h8.59v6.48L953,1584.59l19,9,38.71,18h419.81V0Z"/>
</svg>