<svg xmlns="http://www.w3.org/2000/svg" viewBox="0 0 133.5 61.3"><defs><clipPath id="clip-path"><path d="M50 0h-8.3s-5.5 0-8.3 8.4-5.6 18.1-5.6 18.1-5.5 16.7-8.3 20.9S7 58.5 7 58.5h112.6s-12.5-8.3-15.3-20.9S101.5 14 94.6 14h-9.8s-4.1 0-5.5 7S75 46 75 46s0 4.2-2.8 2.8-5.5-5.6-7-12.5S61.2 14 61.2 14 59.9 0 51.3 0a8.8 8.8 0 00-1.2 0" fill="none"/></clipPath><style>.cls-5{fill:#936240}</style></defs><g id="Capa_2" data-name="Capa 2"><g id="Capa_1-2" data-name="Capa 1"><path d="M119.6 58.5s-12.5-8.3-15.3-20.9S101.5 14 94.6 14h-9.8s-4.1 0-5.5 7S75 46 75 46s0 4.2-2.8 2.8-5.5-5.6-7-12.5S61.2 14 61.2 14 59.8-1.3 50.1 0h-8.4s-5.5 0-8.3 8.4-5.6 18.1-5.6 18.1-5.5 16.7-8.3 20.9S7 58.5 7 58.5z" fill="#c7b0a9"/><path fill="#7c931b" d="M132.1 57.1l-1.4 1.4-1.3-1.4-1.4 1.4-1.4-1.4-1.4 1.4-1.4-1.4-1.4 1.4-1.4-1.4-1.4 1.4-1.4-1.4-1.4 1.4-1.4-1.4-1.4 1.4-1.3-1.4-1.4 1.4-1.4-1.4-1.4 1.4-1.4-1.4-1.4 1.4-1.4-1.4-1.4 1.4-1.4-1.4-1.4 1.4-1.3-1.4-1.4 1.4-1.4-1.4-1.4 1.4-1.4-1.4-1.4 1.4-1.4-1.4-1.4 1.4-1.4-1.4-1.4 1.4-1.4-1.4-1.3 1.4-1.4-1.4-1.4 1.4-1.4-1.4-1.4 1.4-1.4-1.4-1.4 1.4-1.4-1.4-1.4 1.4-1.4-1.4-1.4 1.4-1.3-1.4-1.4 1.4-1.4-1.4-1.4 1.4-1.4-1.4-1.4 1.4-1.4-1.4-1.4 1.4-1.4-1.4-1.4 1.4-1.4-1.4-1.4 1.4-1.3-1.4-1.4 1.4-1.4-1.4-1.4 1.4-1.4-1.4-1.4 1.4-1.4-1.4-1.4 1.4-1.4-1.4-1.3 1.4-1.5-1.4-1.3 1.4-1.4-1.4-1.4 1.4-1.4-1.4-1.4 1.4-1.4-1.4-1.4 1.4-1.4-1.4-1.4 1.4-1.4-1.4-1.4 1.4-1.3-1.4-1.4 1.4-1.4-1.4-1.4 1.4-1.4-1.4-1.4 1.4-1.4-1.4-1.4 1.4-1.4-1.4-1.3 1.4L7 57.1l-1.4 1.4-1.4-1.4-1.4 1.4-1.4-1.4L0 58.5v2.8h133.5v-2.8l-1.4-1.4z"/><g clip-path="url(#clip-path)"><path class="cls-5" d="M112 54.6l-2.8-3.5-2.8 3.5-2.8-3.5-2.8 3.5-2.7-3.5-2.8 3.5-2.8-3.5-2.8 3.5-2.8-3.5-2.8 3.5-2.7-3.5-2.8 3.5-2.8-3.5-2.8 3.5-2.8-3.5-2.7 3.5-2.8-3.5-2.8 3.5-2.8-3.5-2.8 3.5-2.8-3.5-2.7 3.5-2.8-3.5-2.8 3.5-2.8-3.5-2.8 3.5-2.7-3.5-2.8 3.5-2.8-3.5-2.8 3.5-2.8-3.5-2.8 3.5-2.7-3.5-2.8 3.5-3-3.6.3-.3 2.7 3.3 2.8-3.4L23 54l2.7-3.4 2.8 3.4 2.8-3.4 2.8 3.4 2.8-3.4 2.7 3.4 2.8-3.4 2.8 3.4 2.8-3.4 2.8 3.4 2.8-3.4 2.7 3.4 2.8-3.4L62 54l2.8-3.4 2.8 3.4 2.7-3.4L73 54l2.8-3.4 2.8 3.4 2.8-3.4 2.8 3.4 2.7-3.4 2.8 3.4 2.8-3.4 2.8 3.4 2.8-3.4 2.7 3.4 2.8-3.4 2.8 3.4 2.8-3.4L112 54l2.6-3.3.3.3-3 3.6zM112 47.6l-2.8-2.8-2.8 2.8-2.8-2.8-2.8 2.8-2.7-2.8-2.8 2.8-2.8-2.8-2.8 2.8-2.8-2.8-2.8 2.8-2.7-2.8-2.8 2.8-2.8-2.8-2.8 2.8-2.8-2.8-2.7 2.8-2.8-2.8-2.8 2.8-2.8-2.8-2.8 2.8-2.8-2.8-2.7 2.8-2.8-2.8-2.8 2.8-2.8-2.8-2.8 2.8-2.7-2.8-2.8 2.8-2.8-2.8-2.8 2.8-2.8-2.8-2.8 2.8-2.7-2.8-2.8 2.8-3-2.9.3-.2 2.7 2.6 2.8-2.8 2.8 2.8 2.7-2.8 2.8 2.8 2.8-2.8 2.8 2.8 2.8-2.8 2.7 2.8 2.8-2.8 2.8 2.8 2.8-2.8 2.8 2.8 2.8-2.8 2.7 2.8 2.8-2.8 2.8 2.8 2.8-2.8 2.8 2.8 2.7-2.8 2.8 2.8 2.8-2.8 2.8 2.8 2.8-2.8 2.8 2.8 2.7-2.8 2.8 2.8 2.8-2.8 2.8 2.8 2.8-2.8 2.7 2.8 2.8-2.8 2.8 2.8 2.8-2.8 2.8 2.8 2.6-2.6.3.2-3 3zM112 42l-2.8-2.7-2.8 2.8-2.8-2.8-2.8 2.8-2.7-2.8-2.8 2.8-2.8-2.8-2.8 2.8-2.8-2.8-2.8 2.8-2.7-2.8-2.8 2.8-2.8-2.8L73 42l-2.8-2.8-2.7 2.8-2.8-2.8-2.8 2.8-2.8-2.8-2.8 2.8-2.8-2.8-2.7 2.8-2.8-2.8-2.8 2.8-2.8-2.8-2.8 2.8-2.7-2.8L34 42l-2.8-2.8-2.8 2.8-2.8-2.8L23 42l-2.7-2.8-2.8 2.8-3-3 .3-.2 2.7 2.7 2.8-2.8 2.8 2.8 2.7-2.8 2.8 2.8 2.8-2.8 2.8 2.8 2.8-2.8 2.7 2.8 2.8-2.8 2.8 2.8 2.8-2.8 2.8 2.8 2.8-2.8 2.7 2.8 2.8-2.8 2.8 2.8 2.8-2.8 2.8 2.8 2.7-2.8 2.8 2.8 2.8-2.8 2.8 2.8 2.8-2.8 2.8 2.8 2.7-2.8 2.8 2.8 2.8-2.8 2.8 2.8 2.8-2.8 2.7 2.8 2.8-2.8 2.8 2.8 2.8-2.8 2.8 2.8 2.6-2.7.3.3-3 2.9zM112 36.5l-2.8-2.8-2.8 2.8-2.8-2.8-2.8 2.8-2.7-2.8-2.8 2.8-2.8-2.8-2.8 2.8-2.8-2.8-2.8 2.8-2.7-2.8-2.8 2.8-2.8-2.8-2.8 2.8-2.8-2.8-2.7 2.8-2.8-2.8-2.8 2.8-2.8-2.8-2.8 2.8-2.8-2.8-2.7 2.8-2.8-2.8-2.8 2.8-2.8-2.8-2.8 2.8-2.7-2.8-2.8 2.8-2.8-2.8-2.8 2.8-2.8-2.8-2.8 2.8-2.7-2.8-2.8 2.8-3-3 .3-.1 2.7 2.6 2.8-2.8L23 36l2.7-2.8 2.8 2.8 2.8-2.8 2.8 2.8 2.8-2.8 2.7 2.8 2.8-2.8 2.8 2.8 2.8-2.8 2.8 2.8 2.8-2.8 2.7 2.8 2.8-2.8L62 36l2.8-2.8 2.8 2.8 2.7-2.8L73 36l2.8-2.8 2.8 2.8 2.8-2.8 2.8 2.8 2.7-2.8 2.8 2.8 2.8-2.8 2.8 2.8 2.8-2.8 2.7 2.8 2.8-2.8 2.8 2.8 2.8-2.8L112 36l2.6-2.6.3.2-3 2.9zM112 31l-2.8-2.9-2.8 2.8-2.8-2.8-2.8 2.8-2.7-2.8-2.8 2.8-2.8-2.8-2.8 2.8-2.8-2.8-2.8 2.8-2.7-2.8-2.8 2.8-2.8-2.8L73 31l-2.8-2.8-2.7 2.8-2.8-2.8-2.8 2.8-2.8-2.8-2.8 2.8-2.8-2.8-2.7 2.8-2.8-2.8-2.8 2.8-2.8-2.8-2.8 2.8-2.7-2.8L34 31l-2.8-2.8-2.8 2.8-2.8-2.8L23 31l-2.7-2.8-2.8 2.8-3-2.9.3-.2 2.7 2.6 2.8-2.7 2.8 2.7 2.7-2.7 2.8 2.7 2.8-2.7 2.8 2.7 2.8-2.7 2.7 2.7 2.8-2.7 2.8 2.7 2.8-2.7 2.8 2.7 2.8-2.7 2.7 2.7 2.8-2.7 2.8 2.7 2.8-2.7 2.8 2.7 2.7-2.7 2.8 2.7 2.8-2.7 2.8 2.7 2.8-2.7 2.8 2.7 2.7-2.7 2.8 2.7 2.8-2.7 2.8 2.7 2.8-2.7 2.7 2.7 2.8-2.7 2.8 2.7 2.8-2.7 2.8 2.7 2.6-2.6.3.2-3 3zM112 24l-2.8-2.8-2.8 2.8-2.8-2.8-2.8 2.8-2.7-2.8-2.8 2.8-2.8-2.8-2.8 2.8-2.8-2.8-2.8 2.8-2.7-2.8-2.8 2.8-2.8-2.8L73 24l-2.8-2.8-2.7 2.8-2.8-2.8-2.8 2.8-2.8-2.8-2.8 2.8-2.8-2.8-2.7 2.8-2.8-2.8-2.8 2.8-2.8-2.8-2.8 2.8-2.7-2.8L34 24l-2.8-2.8-2.8 2.8-2.8-2.8L23 24l-2.7-2.8-2.8 2.8-3-3 .3-.2 2.7 2.7 2.8-2.8 2.8 2.8 2.7-2.8 2.8 2.8 2.8-2.8 2.8 2.8 2.8-2.8 2.7 2.8 2.8-2.8 2.8 2.8 2.8-2.8 2.8 2.8 2.8-2.8 2.7 2.8 2.8-2.8 2.8 2.8 2.8-2.8 2.8 2.8 2.7-2.8 2.8 2.8 2.8-2.8 2.8 2.8 2.8-2.8 2.8 2.8 2.7-2.8 2.8 2.8 2.8-2.8 2.8 2.8 2.8-2.8 2.7 2.8 2.8-2.8 2.8 2.8 2.8-2.8 2.8 2.8 2.6-2.7.3.3-3 2.9zM112 18.4l-2.8-2.8-2.8 2.8-2.8-2.8-2.8 2.8-2.7-2.8-2.8 2.8-2.8-2.8-2.8 2.8-2.8-2.8-2.8 2.8-2.7-2.8-2.8 2.8-2.8-2.8-2.8 2.8-2.8-2.8-2.7 2.8-2.8-2.8-2.8 2.8-2.8-2.8-2.8 2.8-2.8-2.8-2.7 2.8-2.8-2.8-2.8 2.8-2.8-2.8-2.8 2.8-2.7-2.8-2.8 2.8-2.8-2.8-2.8 2.8-2.8-2.8-2.8 2.8-2.7-2.8-2.8 2.8-3-2.9.3-.2 2.7 2.6 2.8-2.8L23 18l2.7-2.8 2.8 2.8 2.8-2.8 2.8 2.8 2.8-2.8 2.7 2.8 2.8-2.8 2.8 2.8 2.8-2.8 2.8 2.8 2.8-2.8 2.7 2.8 2.8-2.8L62 18l2.8-2.8 2.8 2.8 2.7-2.8L73 18l2.8-2.8 2.8 2.8 2.8-2.8 2.8 2.8 2.7-2.8 2.8 2.8 2.8-2.8 2.8 2.8 2.8-2.8 2.7 2.8 2.8-2.8 2.8 2.8 2.8-2.8L112 18l2.6-2.6.3.2-3 3zM112 11.5l-2.8-2.8-2.8 2.8-2.8-2.8-2.8 2.8-2.7-2.8-2.8 2.8-2.8-2.8-2.8 2.8L87 8.7l-2.8 2.8-2.7-2.8-2.8 2.8-2.8-2.8-2.8 2.8-2.8-2.8-2.7 2.8-2.8-2.8-2.8 2.8-2.8-2.8-2.8 2.8-2.8-2.8-2.7 2.8L48 8.7l-2.8 2.8-2.8-2.8-2.8 2.8L37 8.7 34 11.5l-2.8-2.8-2.8 2.8-2.8-2.8-2.8 2.8-2.7-2.8-2.8 2.8-3-3 .3-.2 2.7 2.7 2.8-2.8L23 11l2.7-2.8 2.8 2.8 2.8-2.8 2.8 2.8 2.8-2.8 2.7 2.8 2.8-2.8 2.8 2.8L48 8.2l2.8 2.8 2.8-2.8 2.7 2.8 2.8-2.8L62 11l2.8-2.8 2.8 2.8 2.7-2.8L73 11l2.8-2.8 2.8 2.8 2.8-2.8 2.8 2.8 2.7-2.8 2.8 2.8 2.8-2.8 2.8 2.8L98 8.2l2.7 2.8 2.8-2.8 2.8 2.8 2.8-2.8L112 11l2.6-2.7.3.3-3 2.9zM112 5.9l-2.8-2.8-2.8 2.8-2.8-2.8-2.8 2.8-2.7-2.8L95.3 6l-2.8-2.8L89.7 6 87 3.1 84.1 6l-2.7-2.8L78.6 6l-2.8-2.8L73 6l-2.8-2.8L67.5 6l-2.8-2.8L61.9 6l-2.8-2.8L56.3 6l-2.8-2.8L50.8 6 48 3.1 45.2 6l-2.8-2.8L39.6 6 37 3.1 34 6l-2.8-2.8L28.5 6l-2.8-2.8L23 6l-2.7-2.8L17.4 6l-3-3 .3-.1 2.7 2.6 2.8-2.8L23 5.4l2.7-2.8 2.8 2.8 2.8-2.8 2.8 2.8 2.8-2.8 2.7 2.8 2.8-2.8 2.8 2.8L48 2.6l2.8 2.8 2.8-2.8 2.7 2.8 2.8-2.8L62 5.4l2.8-2.8 2.8 2.8 2.7-2.8L73 5.4l2.8-2.8 2.8 2.8 2.8-2.8 2.8 2.8 2.7-2.8 2.8 2.8 2.8-2.8 2.8 2.8L98 2.6l2.7 2.8 2.8-2.8 2.8 2.8 2.8-2.8 2.8 2.8 2.6-2.7.3.3-3 2.9z"/></g></g></g></svg>