<svg xmlns="http://www.w3.org/2000/svg" viewBox="0 0 83.7 38.4"><defs><clipPath id="clip-path"><path d="M31.4 0h-5.2s-3.5 0-5.3 5.3-3.5 11.3-3.5 11.3-3.4 10.5-5.2 13.1-7.8 7-7.8 7H75s-7.8-5.2-9.6-13-1.8-15-6.1-15h-6.1s-2.6 0-3.5 4.4-2.6 15.7-2.6 15.7 0 2.6-1.8 1.8S42 27 41 22.7l-2.6-14S37.6 0 32 0a5 5 0 00-.7 0" fill="none"/></clipPath><style>.cls-5{fill:#936240}</style></defs><g id="Capa_2" data-name="Capa 2"><g id="Capa_1-2" data-name="Capa 1"><path d="M75 36.7s-7.8-5.3-9.6-13.1-1.8-14.8-6.1-14.8h-6.1s-2.6 0-3.5 4.3-2.6 15.7-2.6 15.7 0 2.6-1.8 1.8S42 27 41 22.7l-2.6-14s-1-9.5-7-8.6h-5.2s-3.5 0-5.3 5.2-3.5 11.3-3.5 11.3-3.4 10.5-5.2 13.1-7.8 7-7.8 7z" fill="#cc9b54"/><path fill="#7c931b" d="M82.8 35.8l-.8.9-1-.9-.8.9-.9-.9-.8.9-.9-.9-.9.9-.9-.9-.8.9-.9-.9-.9.9-.8-.9-.9.9-.9-.9-.8.9-1-.9-.8.9-.9-.9-.8.9-1-.9-.8.9-.9-.9-.8.9-.9-.9-.9.9-.8-.9-1 .9-.8-.9-.9.9-.8-.9-.9.9-.9-.9-.8.9-1-.9-.8.9-.9-.9-.8.9-.9-.9-.9.9-.8-.9-1 .9-.8-.9-.9.9-.8-.9-1 .9-.8-.9-.9.9-.8-.9-.9.9-.9-.9-.8.9-1-.9-.8.9-.9-.9-.8.9-.9-.9-.9.9-.8-.9-1 .9-.8-.9-.9.9-.8-.9-.9.9-.9-.9-.8.9-1-.9-.8.9-.9-.9-.8.9-.9-.9-.9.9-.8-.9-1 .9-.8-.9-.9.9-.8-.9-1 .9-.8-.9-.9.9-.8-.9-.9.9-.9-.9-.8.9-1-.9-.8.9-.8-.9-1 .9-.8-.9-.9.9-.8-.9-1 .9-.8-.9-.9.9-.8-.9-.9.9v1.7h83.7v-1.7l-.9-.9z"/><g clip-path="url(#clip-path)"><path class="cls-5" d="M70.2 34.2L68.4 32l-1.7 2.2L65 32l-1.8 2.2-1.7-2.2-1.8 2.2L58 32l-1.8 2.2-1.7-2.2-1.8 2.2L51 32l-1.7 2.2-1.8-2.2-1.7 2.2L44 32l-1.7 2.2-1.8-2.2-1.7 2.2L37 32l-1.7 2.2-1.7-2.2-1.8 2.2-1.7-2.2-1.8 2.2-1.7-2.2-1.8 2.2-1.7-2.2-1.7 2.2-1.8-2.2-1.7 2.2L16 32l-1.7 2.2-1.8-2.2-1.7 2.2L9.1 32h.1l1.7 2 1.7-2.2 1.8 2.2 1.7-2.2L18 34l1.7-2.2 1.8 2.2 1.7-2.2 1.8 2.2 1.7-2.2 1.7 2.2 1.8-2.2 1.7 2.2 1.8-2.2 1.7 2.2 1.8-2.2 1.7 2.2 1.7-2.2 1.8 2.2 1.7-2.2 1.8 2.2 1.7-2.2 1.8 2.2 1.7-2.2 1.8 2.2 1.7-2.2 1.7 2.2 1.8-2.2 1.7 2.2 1.8-2.2 1.7 2.2 1.8-2.2 1.7 2.2 1.7-2.2 1.8 2.2 1.6-2h.2l-1.8 2.3zM70.2 29.9L68.4 28 66.7 30 65 28 63.2 30 61.5 28 59.7 30 58 28 56.2 30 54.5 28 52.7 30 51 28 49.3 30 47.5 28 45.8 30 44 28 42.3 30 40.5 28 38.8 30 37 28 35.3 30 33.6 28 31.8 30 30.1 28 28.3 30 26.6 28 24.8 30 23.2 28 21.4 30 19.6 28 18 30 16 28 14.4 30 12.6 28 11 30 9.1 28l.1-.1 1.7 1.7 1.7-1.8 1.8 1.8 1.7-1.8 1.8 1.8 1.7-1.8 1.8 1.8 1.7-1.8 1.8 1.8 1.7-1.8 1.7 1.8 1.8-1.8 1.7 1.8 1.8-1.8 1.7 1.8 1.8-1.8 1.7 1.8 1.7-1.8 1.8 1.8 1.7-1.8 1.8 1.8 1.7-1.8 1.8 1.8 1.7-1.8 1.8 1.8 1.7-1.8 1.7 1.8 1.8-1.8 1.7 1.8 1.8-1.8 1.7 1.8 1.8-1.8 1.7 1.8 1.7-1.8 1.8 1.8 1.6-1.7.2.1-1.8 1.9zM70.2 26.4l-1.8-1.8-1.7 1.8-1.7-1.8-1.8 1.8-1.7-1.8-1.8 1.8-1.7-1.8-1.8 1.8-1.7-1.8-1.8 1.8-1.7-1.8-1.7 1.8-1.8-1.8-1.7 1.8-1.8-1.8-1.7 1.8-1.8-1.8-1.7 1.8-1.8-1.8-1.7 1.8-1.7-1.8-1.8 1.8-1.7-1.8-1.8 1.8-1.7-1.8-1.8 1.8-1.7-1.8-1.7 1.8-1.8-1.8-1.7 1.8-1.8-1.8-1.7 1.8-1.8-1.8-1.7 1.8-1.8-1.8.1-.2L11 26l1.7-1.8 1.8 1.8 1.7-1.8 1.8 1.8 1.7-1.8 1.8 1.8 1.7-1.8 1.8 1.8 1.7-1.8 1.7 1.8 1.8-1.8 1.7 1.8 1.8-1.8 1.7 1.8 1.8-1.8 1.7 1.8 1.7-1.8 1.8 1.8 1.7-1.8 1.8 1.8 1.7-1.8 1.8 1.8 1.7-1.8 1.8 1.8 1.7-1.8 1.7 1.8 1.8-1.8 1.7 1.8 1.8-1.8 1.7 1.8 1.8-1.8 1.7 1.8 1.7-1.8 1.8 1.8 1.6-1.7.2.2-1.8 1.8zM70.2 22.9L68.4 21 66.7 23 65 21 63.2 23 61.5 21 59.7 23 58 21 56.2 23 54.5 21 52.7 23 51 21 49.3 23 47.5 21 45.8 23 44 21 42.3 23 40.5 21 38.8 23 37 21 35.3 23 33.6 21 31.8 23 30.1 21 28.3 23 26.6 21 24.8 23 23.2 21 21.4 23 19.6 21 18 23 16 21 14.4 23 12.6 21 11 23 9.1 21l.1-.2 1.7 1.7 1.7-1.8 1.8 1.8 1.7-1.8 1.8 1.8 1.7-1.8 1.8 1.8 1.7-1.8 1.8 1.8 1.7-1.8 1.7 1.8 1.8-1.8 1.7 1.8 1.8-1.8 1.7 1.8 1.8-1.8 1.7 1.8 1.7-1.8 1.8 1.8 1.7-1.8 1.8 1.8 1.7-1.8 1.8 1.8 1.7-1.8 1.8 1.8 1.7-1.8 1.7 1.8 1.8-1.8 1.7 1.8 1.8-1.8 1.7 1.8 1.8-1.8 1.7 1.8 1.7-1.8 1.8 1.8 1.6-1.7.2.2-1.8 1.8zM70.2 19.4l-1.8-1.8-1.7 1.8-1.7-1.8-1.8 1.8-1.7-1.8-1.8 1.8-1.7-1.8-1.8 1.8-1.7-1.8-1.8 1.8-1.7-1.8-1.7 1.8-1.8-1.8-1.7 1.8-1.8-1.8-1.7 1.8-1.8-1.8-1.7 1.8-1.8-1.8-1.7 1.8-1.7-1.8-1.8 1.8-1.7-1.8-1.8 1.8-1.7-1.8-1.8 1.8-1.7-1.8-1.7 1.8-1.8-1.8-1.7 1.8-1.8-1.8-1.7 1.8-1.8-1.8-1.7 1.8-1.8-1.8.1-.2 1.7 1.7 1.7-1.8 1.8 1.8 1.7-1.8 1.8 1.8 1.7-1.8 1.8 1.8 1.7-1.8 1.8 1.8 1.7-1.8 1.7 1.8 1.8-1.8 1.7 1.8 1.8-1.8 1.7 1.8 1.8-1.8 1.7 1.8 1.7-1.8 1.8 1.8 1.7-1.8 1.8 1.8 1.7-1.8 1.8 1.8 1.7-1.8 1.8 1.8 1.7-1.8 1.7 1.8 1.8-1.8 1.7 1.8 1.8-1.8 1.7 1.8 1.8-1.8 1.7 1.8 1.7-1.8 1.8 1.8 1.6-1.7.2.2-1.8 1.8zM70.2 15l-1.8-1.7-1.7 1.7-1.7-1.7-1.8 1.7-1.7-1.7-1.8 1.7-1.7-1.7-1.8 1.7-1.7-1.7-1.8 1.7-1.7-1.7-1.7 1.7-1.8-1.7-1.7 1.7-1.8-1.7-1.7 1.7-1.8-1.7-1.7 1.7-1.8-1.7-1.7 1.7-1.7-1.7-1.8 1.7-1.7-1.7-1.8 1.7-1.7-1.7-1.8 1.7-1.7-1.7-1.7 1.7-1.8-1.7L18 15 16 13.3 14.4 15l-1.8-1.7L11 15l-1.8-1.8.1-.1 1.7 1.6 1.7-1.7 1.8 1.7L16 13l1.8 1.7 1.7-1.7 1.8 1.7L23 13l1.8 1.7 1.7-1.7 1.7 1.7 1.8-1.7 1.7 1.7 1.8-1.7 1.7 1.7 1.8-1.7 1.7 1.7 1.7-1.7 1.8 1.7L44 13l1.8 1.7 1.7-1.7 1.8 1.7L51 13l1.8 1.7 1.7-1.7 1.7 1.7L58 13l1.7 1.7 1.8-1.7 1.7 1.7L65 13l1.7 1.7 1.7-1.7 1.8 1.7 1.6-1.6.2.1-1.8 1.8zM70.2 11.5l-1.8-1.7-1.7 1.7L65 9.8l-1.8 1.7-1.7-1.7-1.8 1.7L58 9.8l-1.8 1.7-1.7-1.7-1.8 1.7L51 9.8l-1.7 1.7-1.8-1.7-1.7 1.7L44 9.8l-1.7 1.7-1.8-1.7-1.7 1.7L37 9.8l-1.7 1.7-1.7-1.7-1.8 1.7-1.7-1.7-1.8 1.7-1.7-1.7-1.8 1.7-1.7-1.7-1.7 1.7-1.8-1.7-1.7 1.7L16 9.8l-1.7 1.7-1.8-1.7-1.7 1.7-1.8-1.8.1-.1 1.7 1.6 1.7-1.7 1.8 1.7L16 9.5l1.8 1.7 1.7-1.7 1.8 1.7L23 9.5l1.8 1.7 1.7-1.7 1.7 1.7 1.8-1.7 1.7 1.7 1.8-1.7 1.7 1.7 1.8-1.7 1.7 1.7 1.7-1.7 1.8 1.7L44 9.5l1.8 1.7 1.7-1.7 1.8 1.7L51 9.5l1.8 1.7 1.7-1.7 1.7 1.7L58 9.5l1.7 1.7 1.8-1.7 1.7 1.7L65 9.5l1.7 1.7 1.7-1.7 1.8 1.7 1.6-1.6.2.1-1.8 1.8zM70.2 7.2l-1.8-1.8-1.7 1.8L65 5.4l-1.8 1.8-1.7-1.8-1.8 1.8L58 5.4l-1.8 1.8-1.7-1.8-1.8 1.8L51 5.4l-1.7 1.8-1.8-1.8-1.7 1.8L44 5.4l-1.7 1.8-1.8-1.8-1.7 1.8L37 5.4l-1.7 1.8-1.7-1.8-1.8 1.8-1.7-1.8-1.8 1.8-1.7-1.8-1.8 1.8-1.7-1.8-1.7 1.8-1.8-1.8L18 7.2 16 5.4l-1.7 1.8-1.8-1.8L11 7.2 9.1 5.4l.1-.2L11 7 12.6 5 14.4 7 16 5 18 7 19.6 5 21.4 7 23 5 24.9 7 26.6 5 28.3 7 30.1 5 31.8 7 33.6 5 35.3 7 37.1 5 38.8 7 40.5 5 42.3 7 44 5 45.8 7 47.5 5 49.3 7 51 5 52.8 7 54.5 5 56.2 7 58 5 59.7 7 61.5 5 63.2 7 65 5 66.7 7 68.4 5 70.2 7l1.6-1.7.2.2-1.8 1.8zM70.2 3.7l-1.8-1.8-1.7 1.8L65 1.9l-1.8 1.8-1.7-1.8-1.8 1.8L58 1.9l-1.8 1.8-1.7-1.8-1.8 1.8L51 1.9l-1.7 1.8-1.8-1.8-1.7 1.8L44 1.9l-1.7 1.8-1.8-1.8-1.7 1.8L37 1.9l-1.7 1.8-1.7-1.8-1.8 1.8-1.7-1.8-1.8 1.8-1.7-1.8-1.8 1.8-1.7-1.8-1.7 1.8-1.8-1.8L18 3.8 16 1.9l-1.7 1.8-1.8-1.8L11 3.8 9.1 1.9l.1-.2L11 3.4l1.7-1.8 1.8 1.8L16 1.6 18 3.5l1.7-1.8 1.8 1.8L23 1.6l1.8 1.8 1.7-1.8 1.7 1.8 1.8-1.8 1.7 1.8 1.8-1.8 1.7 1.8 1.8-1.8 1.7 1.8 1.7-1.8 1.8 1.8L44 1.6l1.8 1.8 1.7-1.8 1.8 1.8L51 1.6l1.8 1.8 1.7-1.8 1.7 1.8L58 1.6l1.7 1.8 1.8-1.8 1.7 1.8L65 1.6l1.7 1.8 1.7-1.8 1.8 1.8 1.6-1.7.2.2-1.8 1.8z"/></g></g></g></svg>