<svg xmlns="http://www.w3.org/2000/svg" viewBox="0 0 828.02 601.73"><defs><style>.cls-1{fill:none;stroke:#f6a240;stroke-miterlimit:10;stroke-width:4px;}</style></defs><title>Recurso 2</title><g id="Capa_2" data-name="Capa 2"><g id="Calles_y_avenidas" data-name="Calles y avenidas"><path class="cls-1" d="M593.64,339.21l4.84,1.56c-5.24,4.08-24.79,27.05-55,64m36-252-455,48L.37,224.44M123.73,9.25l1.75,5.52,13,143s-10,42.15-20,44.08c0,0,14,9.92-32,78.92m-10-119.65,216-18.35,178-18,105-11M283.34.77a42.78,42.78,0,0,1-4.86,9c-9,12,16.63,173,16.63,173m177.37-114s-72-7-148-19-104-11-104-11-138,17-150,17c-5.21,0-9.66-1.5-17-.76M503.92,7.9,491.48,32.77h-16S467.42,79.63,479,124.2M261.36,186.33l4.12,33.44s-2,11,20,19c8.2,3,53.73,17.9,107.63,35.44M111.41,365.9c-2.07-12.41-3.89-22.88-5-28.26-4-19.87-14-51.87-20-56.87s-43-19-49-32S33.81,217,33.81,217m90.28,235.7c.32-3.76.39-6,.39-6S117,399.31,111.41,365.9m64.07-168.13s5,25-5,42-20,52-21,62,9,69,9,69m553.65-302-79.65,114v4l21,210,29.07,204.68m143.7-491.23L747.61,260s-8.51-1.58,5.68,60.6q.72,3.15,1.44,6.45M543.58,404.77s110.9-8,109.9-13"/></g></g></svg>