<svg xmlns="http://www.w3.org/2000/svg" viewBox="0 0 21.08 15.05">
  <title>Recurso 2</title>
  <g>
    <path d="M9.11,7.07c0,1.17-2,2.12-4.56,2.12S0,8.24,0,7.07,2,5,4.55,5,9.11,5.9,9.11,7.07Z" opacity="0.36"/>
    <path d="M16.85,12.93c0,1.17-2,2.12-4.55,2.12s-4.56-1-4.56-2.12,2-2.12,4.56-2.12S16.85,11.76,16.85,12.93Z" opacity="0.36"/>
    <path d="M21.08,7.3c0,1.17-2.1,2.12-4.69,2.12s-4.7-.95-4.7-2.12,2.1-2.12,4.7-2.12S21.08,6.13,21.08,7.3Z" opacity="0.36"/>
    <path d="M13.2,2.12c0,1.17-2,2.12-4.56,2.12s-4.55-1-4.55-2.12S6.13,0,8.64,0,13.2,1,13.2,2.12Z" opacity="0.36"/>
  </g>
</svg>
