<svg width="16" height="16" viewBox="0 0 16 16" fill="none" xmlns="http://www.w3.org/2000/svg">
<g opacity="0.5">
<path d="M2 14L3.1 11.4666C2.25844 10.272 1.88178 8.81134 2.0407 7.35872C2.19961 5.9061 2.88319 4.56141 3.96314 3.57699C5.04309 2.59258 6.44517 2.03612 7.90625 2.01205C9.36734 1.98797 10.787 2.49793 11.8988 3.44623C13.0106 4.39452 13.7381 5.71596 13.9448 7.16256C14.1515 8.60915 13.8231 10.0815 13.0214 11.3032C12.2197 12.5249 10.9996 13.412 9.59026 13.7981C8.1809 14.1841 6.67908 14.0426 5.36667 13.4L2 14" stroke="#4F2D5A" stroke-width="1.2" stroke-linecap="round" stroke-linejoin="round"/>
<path d="M6 6.66669C6 6.75509 6.03512 6.83988 6.09763 6.90239C6.16014 6.9649 6.24493 7.00002 6.33333 7.00002C6.42174 7.00002 6.50652 6.9649 6.56904 6.90239C6.63155 6.83988 6.66667 6.75509 6.66667 6.66669L6.66667 6.00002C6.66667 5.91161 6.63155 5.82683 6.56904 5.76432C6.50652 5.70181 6.42174 5.66669 6.33333 5.66669C6.24493 5.66669 6.16014 5.70181 6.09763 5.76432C6.03512 5.82683 6 5.91161 6 6.00002L6 6.66669ZM6 6.66669C6 7.55074 6.35119 8.39859 6.97631 9.02371C7.60143 9.64883 8.44928 10 9.33333 10H10C10.0884 10 10.1732 9.9649 10.2357 9.90239C10.2982 9.83988 10.3333 9.75509 10.3333 9.66669C10.3333 9.57828 10.2982 9.4935 10.2357 9.43098C10.1732 9.36847 10.0884 9.33335 10 9.33335H9.33333C9.24493 9.33335 9.16014 9.36847 9.09763 9.43098C9.03512 9.4935 9 9.57828 9 9.66669C9 9.75509 9.03512 9.83988 9.09763 9.90239C9.16014 9.9649 9.24493 10 9.33333 10" stroke="#4F2D5A" stroke-width="1.2" stroke-linecap="round" stroke-linejoin="round"/>
</g>
</svg>
